<?xml version="1.0" standalone="no"?>
<!DOCTYPE svg PUBLIC "-//W3C//DTD SVG 20010904//EN"
 "http://www.w3.org/TR/2001/REC-SVG-20010904/DTD/svg10.dtd">
<svg version="1.0" xmlns="http://www.w3.org/2000/svg"
 width="500.000000pt" height="500.000000pt" viewBox="0 0 500.000000 500.000000"
 preserveAspectRatio="xMidYMid meet">

<g transform="translate(0.000000,500.000000) scale(0.100000,-0.100000)"
fill="#000000" stroke="none">
<path d="M1744 3368 c13 -19 16 -58 16 -228 0 -170 -3 -209 -16 -228 -15 -22
-15 -22 32 -22 42 0 45 2 33 17 -11 12 -15 71 -18 250 l-3 233 -30 0 c-28 0
-29 -1 -14 -22z"/>
<path d="M3904 3325 c-8 -21 2 -45 19 -45 8 0 20 7 27 15 10 12 10 18 0 30 -7
8 -19 15 -27 15 -7 0 -16 -7 -19 -15z"/>
<path d="M1633 3229 c15 -21 12 -59 -4 -59 -5 0 -9 -4 -9 -10 0 -14 33 -13 48
2 19 19 14 55 -10 72 -31 22 -42 20 -25 -5z"/>
<path d="M2708 3243 c7 -3 16 -2 19 1 4 3 -2 6 -13 5 -11 0 -14 -3 -6 -6z"/>
<path d="M3413 3240 c18 -12 23 -55 7 -65 -16 -10 -11 -25 8 -25 59 0 53 79
-8 94 -21 6 -22 5 -7 -4z"/>
<path d="M896 3232 c5 -4 21 -18 36 -31 27 -23 27 -23 21 -1 -3 12 -17 26 -30
31 -30 11 -40 12 -27 1z"/>
<path d="M1073 3223 c-26 -18 -30 -55 -8 -73 23 -19 40 1 24 28 -11 18 -10 24
5 41 22 25 11 27 -21 4z"/>
<path d="M1258 3230 c6 -8 12 -23 12 -35 0 -12 -6 -27 -12 -34 -11 -10 -8 -10
12 -3 17 6 25 17 25 32 0 13 -10 29 -25 38 -18 11 -21 12 -12 2z"/>
<path d="M1410 3221 c5 -11 10 -82 10 -160 0 -114 -3 -142 -16 -155 -14 -15
-11 -16 36 -16 47 0 50 1 36 16 -13 13 -16 43 -16 175 l0 159 -30 0 c-27 0
-30 -2 -20 -19z"/>
<path d="M1945 3215 c-28 -27 -31 -47 -11 -65 10 -8 21 -8 32 -2 11 6 13 11 5
16 -15 9 -14 49 1 64 7 7 9 12 5 12 -5 0 -19 -11 -32 -25z"/>
<path d="M2135 3217 c16 -25 12 -57 -8 -57 -6 0 -8 -2 -5 -5 11 -11 58 19 58
36 0 10 -14 25 -31 34 l-30 16 16 -24z"/>
<path d="M2499 3223 c-76 -47 -79 -159 -7 -203 43 -26 58 -26 25 0 -53 42 -58
134 -10 191 28 33 28 34 -8 12z"/>
<path d="M2662 3212 c14 -17 29 -49 33 -70 8 -49 -17 -114 -51 -132 -37 -20
-20 -24 21 -5 87 42 88 170 1 221 l-31 18 27 -32z"/>
<path d="M2862 3224 c-27 -18 -30 -69 -5 -78 19 -8 40 8 24 18 -16 10 -13 42
5 60 20 21 5 21 -24 0z"/>
<path d="M3044 3224 c21 -21 20 -51 -1 -63 -23 -13 -12 -14 21 -1 32 12 34 43
4 64 -29 21 -44 21 -24 0z"/>
<path d="M3200 3214 c6 -14 10 -83 10 -152 0 -99 -3 -132 -16 -150 -15 -22
-15 -22 32 -22 41 0 45 2 33 16 -9 11 -13 59 -13 175 l-1 159 -27 0 c-25 0
-27 -2 -18 -26z"/>
<path d="M3587 3219 c-88 -66 -88 -247 1 -305 29 -19 105 -37 96 -23 -3 5 -14
9 -24 9 -10 0 -34 15 -53 33 -70 66 -76 200 -11 277 30 35 29 37 -9 9z"/>
<path d="M3751 3238 c2 -2 19 -16 37 -32 30 -28 32 -28 32 -9 0 15 -10 24 -31
32 -30 10 -48 14 -38 9z"/>
<path d="M3900 3221 c5 -11 10 -82 10 -160 0 -114 -3 -142 -16 -155 -14 -15
-11 -16 36 -16 47 0 50 1 36 16 -13 13 -16 43 -16 175 l0 159 -30 0 c-27 0
-30 -2 -20 -19z"/>
<path d="M4096 3219 c-29 -23 -34 -50 -11 -69 21 -18 35 -3 28 30 -3 18 0 36
7 45 18 21 7 19 -24 -6z"/>
<path d="M4278 3229 c15 -16 16 -51 0 -67 -19 -19 7 -15 32 6 26 21 19 45 -18
61 -22 10 -25 10 -14 0z"/>
<path d="M702 3197 c-67 -71 -56 -223 20 -280 26 -20 112 -41 102 -26 -3 5
-14 9 -24 9 -30 0 -77 47 -96 95 -20 53 -16 134 9 184 21 42 17 48 -11 18z"/>
<path d="M1267 3023 c3 -85 6 -100 24 -115 26 -22 46 -24 28 -2 -7 9 -15 55
-18 112 -5 76 -9 97 -21 100 -13 2 -15 -12 -13 -95z"/>
<path d="M2142 3020 c3 -103 7 -113 48 -125 23 -7 23 -7 7 9 -13 14 -17 36
-17 105 0 82 -8 111 -33 111 -5 0 -7 -45 -5 -100z"/>
<path d="M3055 3023 c5 -81 10 -101 27 -115 28 -25 42 -22 24 4 -11 16 -16 46
-16 99 0 87 -5 109 -27 109 -13 0 -14 -15 -8 -97z"/>
<path d="M4290 3025 c0 -82 3 -98 20 -115 11 -11 25 -20 32 -20 9 0 9 3 0 12
-7 7 -12 43 -12 89 0 79 -11 129 -30 129 -6 0 -10 -37 -10 -95z"/>
<path d="M1074 3091 c-38 -23 -58 -70 -51 -118 7 -44 31 -70 75 -82 40 -12 41
-6 2 14 -52 27 -58 129 -10 181 28 29 25 30 -16 5z"/>
<path d="M1941 3084 c-33 -28 -52 -77 -44 -118 6 -31 49 -76 74 -76 14 0 12 5
-12 29 -21 22 -29 39 -29 66 0 45 22 100 47 114 10 6 13 11 6 11 -6 0 -25 -12
-42 -26z"/>
<path d="M2844 3076 c-29 -29 -34 -41 -34 -79 0 -54 28 -93 78 -107 20 -5 30
-5 27 1 -4 5 -13 9 -21 9 -18 0 -54 58 -54 88 0 29 23 83 44 105 10 10 13 17
6 17 -7 0 -27 -15 -46 -34z"/>
<path d="M4093 3090 c-21 -13 -36 -32 -44 -59 -20 -66 8 -123 68 -140 l33 -10
-35 33 c-30 29 -35 40 -35 78 0 32 8 56 25 82 13 20 23 36 22 36 -1 0 -16 -9
-34 -20z"/>
<path d="M2642 2918 c44 -11 88 -59 88 -93 0 -33 -18 -76 -42 -102 -12 -13
-17 -23 -11 -23 20 0 70 68 77 104 13 69 -40 127 -114 125 l-35 -1 37 -10z"/>
<path d="M2442 2825 c-12 -15 -22 -34 -22 -42 0 -25 29 -72 52 -84 20 -11 20
-9 -5 20 -32 39 -34 62 -7 86 15 14 28 16 57 10 21 -4 50 -9 66 -12 25 -5 57
10 57 26 0 4 -15 8 -32 8 -18 0 -58 4 -89 8 -53 7 -57 6 -77 -20z"/>
</g>
</svg>
